<?xml version="1.0" encoding="UTF-8" standalone="no"?>
<!DOCTYPE svg PUBLIC "-//W3C//DTD SVG 1.1//EN"
 "http://www.w3.org/Graphics/SVG/1.1/DTD/svg11.dtd">
<!-- Generated by graphviz version 2.44.0 (0)
 -->
<!-- Title: G Pages: 1 -->
<svg width="1788pt" height="948pt"
 viewBox="0.00 0.00 1787.85 948.00" xmlns="http://www.w3.org/2000/svg" xmlns:xlink="http://www.w3.org/1999/xlink">
<g id="graph0" class="graph" transform="scale(1 1) rotate(0) translate(4 944)">
<title>G</title>
<polygon fill="white" stroke="transparent" points="-4,4 -4,-944 1783.85,-944 1783.85,4 -4,4"/>
<g id="clust1" class="cluster">
<title>cluster_key</title>
<polygon fill="none" stroke="black" points="8,-685 8,-932 377.57,-932 377.57,-685 8,-685"/>
<text text-anchor="middle" x="192.78" y="-916.8" font-family="helvetica" font-size="14.00">Key</text>
</g>
<g id="clust2" class="cluster">
<title>cluster_inputs</title>
<polygon fill="none" stroke="black" points="28.51,-409 28.51,-651 357.05,-651 357.05,-409 28.51,-409"/>
</g>
<g id="clust3" class="cluster">
<title>cluster_controllers</title>
<polygon fill="none" stroke="black" points="397.57,-384 397.57,-872 820.86,-872 820.86,-384 397.57,-384"/>
<text text-anchor="middle" x="609.22" y="-856.8" font-family="helvetica" font-size="14.00">Local Storage Operator Pod</text>
</g>
<g id="clust4" class="cluster">
<title>cluster_n0</title>
<polygon fill="none" stroke="black" points="1255.87,-142 1255.87,-323 1517.87,-323 1517.87,-142 1255.87,-142"/>
<text text-anchor="middle" x="1386.87" y="-307.8" font-family="helvetica" font-size="14.00">Node &#39;N&#39;</text>
</g>
<!-- nd_cont -->
<g id="node1" class="node">
<title>nd_cont</title>
<ellipse fill="none" stroke="black" cx="609.22" cy="-679" rx="181.95" ry="37.45"/>
<text text-anchor="middle" x="609.22" y="-690.3" font-family="Times-Roman" font-size="14.00">Node Daemon Controller</text>
<text text-anchor="middle" x="609.22" y="-675.3" font-family="Times-Roman" font-size="14.00">(merges nodeSelector, tolerations,</text>
<text text-anchor="middle" x="609.22" y="-660.3" font-family="Times-Roman" font-size="14.00">ownerRefs, creates diskmaker&#45;ds)</text>
</g>
<!-- diskmaker_ds -->
<g id="node13" class="node">
<title>diskmaker_ds</title>
<ellipse fill="lightgrey" stroke="lightgrey" cx="1038.37" cy="-601" rx="178.8" ry="26.74"/>
<text text-anchor="middle" x="1038.37" y="-604.8" font-family="Times-Roman" font-size="14.00">Shared Diskmaker Daemonset</text>
<text text-anchor="middle" x="1038.37" y="-589.8" font-family="Times-Roman" font-size="14.00">(on nodes selected by LVs,LVSets)</text>
</g>
<!-- nd_cont&#45;&gt;diskmaker_ds -->
<g id="edge10" class="edge">
<title>nd_cont&#45;&gt;diskmaker_ds</title>
<path fill="none" stroke="green" d="M756.11,-652.36C807.4,-642.99 864.49,-632.57 913.76,-623.57"/>
<polygon fill="green" stroke="green" points="755.16,-648.97 745.96,-654.21 756.42,-655.86 755.16,-648.97"/>
<polygon fill="green" stroke="green" points="914.62,-626.97 923.83,-621.73 913.37,-620.09 914.62,-626.97"/>
</g>
<!-- lv_cont -->
<g id="node2" class="node">
<title>lv_cont</title>
<ellipse fill="none" stroke="black" cx="609.22" cy="-804" rx="188.18" ry="37.45"/>
<text text-anchor="middle" x="609.22" y="-815.3" font-family="Times-Roman" font-size="14.00">LocalVolume Controller</text>
<text text-anchor="middle" x="609.22" y="-800.3" font-family="Times-Roman" font-size="14.00">(watches LVs, creates StorageClass,</text>
<text text-anchor="middle" x="609.22" y="-785.3" font-family="Times-Roman" font-size="14.00">updates LV status)</text>
</g>
<!-- storageclass -->
<g id="node15" class="node">
<title>storageclass</title>
<ellipse fill="lightgrey" stroke="lightgrey" cx="1038.37" cy="-747" rx="104.78" ry="18"/>
<text text-anchor="middle" x="1038.37" y="-743.3" font-family="Times-Roman" font-size="14.00">StorageClass objects</text>
</g>
<!-- lv_cont&#45;&gt;storageclass -->
<g id="edge2" class="edge">
<title>lv_cont&#45;&gt;storageclass</title>
<path fill="none" stroke="purple" d="M776.12,-781.86C833.5,-774.2 895.71,-765.9 945.02,-759.32"/>
<polygon fill="purple" stroke="purple" points="775.39,-778.43 765.94,-783.22 776.31,-785.37 775.39,-778.43"/>
<polygon fill="purple" stroke="purple" points="945.58,-762.78 955.02,-757.99 944.65,-755.84 945.58,-762.78"/>
</g>
<!-- lvset_cont -->
<g id="node3" class="node">
<title>lvset_cont</title>
<ellipse fill="none" stroke="black" cx="609.22" cy="-554" rx="203.79" ry="37.45"/>
<text text-anchor="middle" x="609.22" y="-565.3" font-family="Times-Roman" font-size="14.00">LocalVolumeSet Controller</text>
<text text-anchor="middle" x="609.22" y="-550.3" font-family="Times-Roman" font-size="14.00">(watches LVSets, creates StorageClass,</text>
<text text-anchor="middle" x="609.22" y="-535.3" font-family="Times-Roman" font-size="14.00">updates LVSet status)</text>
</g>
<!-- lvset_cont&#45;&gt;storageclass -->
<g id="edge4" class="edge">
<title>lvset_cont&#45;&gt;storageclass</title>
<path fill="none" stroke="orange" d="M756.96,-584.98C779.45,-593.3 801.57,-603.8 820.86,-617 837.59,-628.45 833.18,-640.16 848.86,-653 888.85,-685.75 942.15,-710.99 981.87,-727.03"/>
<polygon fill="orange" stroke="orange" points="757.9,-581.6 747.31,-581.55 755.55,-588.2 757.9,-581.6"/>
<polygon fill="orange" stroke="orange" points="980.81,-730.38 991.4,-730.81 983.39,-723.87 980.81,-730.38"/>
</g>
<!-- discovery_cont -->
<g id="node4" class="node">
<title>discovery_cont</title>
<ellipse fill="none" stroke="black" cx="609.22" cy="-429" rx="172.57" ry="37.45"/>
<text text-anchor="middle" x="609.22" y="-440.3" font-family="Times-Roman" font-size="14.00">LocalVolumeDiscovery Controller</text>
<text text-anchor="middle" x="609.22" y="-425.3" font-family="Times-Roman" font-size="14.00">(watches LVDisc.,</text>
<text text-anchor="middle" x="609.22" y="-410.3" font-family="Times-Roman" font-size="14.00">creates diskmaker&#45;ds)</text>
</g>
<!-- discovery_ds -->
<g id="node14" class="node">
<title>discovery_ds</title>
<ellipse fill="lightgrey" stroke="lightgrey" cx="1038.37" cy="-424" rx="189.51" ry="26.74"/>
<text text-anchor="middle" x="1038.37" y="-427.8" font-family="Times-Roman" font-size="14.00">Shared Discovery Daemonset</text>
<text text-anchor="middle" x="1038.37" y="-412.8" font-family="Times-Roman" font-size="14.00">(on nodes selected by LVDiscovery) </text>
</g>
<!-- discovery_cont&#45;&gt;discovery_ds -->
<g id="edge6" class="edge">
<title>discovery_cont&#45;&gt;discovery_ds</title>
<path fill="none" stroke="red" d="M792.02,-426.87C807.62,-426.69 823.45,-426.5 839.18,-426.32"/>
<polygon fill="red" stroke="red" points="791.76,-423.37 781.8,-426.99 791.84,-430.37 791.76,-423.37"/>
<polygon fill="red" stroke="red" points="839.53,-429.82 849.49,-426.2 839.45,-422.82 839.53,-429.82"/>
</g>
<!-- symlinks -->
<g id="node5" class="node">
<title>symlinks</title>
<ellipse fill="none" stroke="black" cx="1662.86" cy="-308" rx="104.78" ry="18"/>
<text text-anchor="middle" x="1662.86" y="-304.3" font-family="Times-Roman" font-size="14.00">Symlink to block dev</text>
</g>
<!-- sc -->
<g id="node6" class="node">
<title>sc</title>
<ellipse fill="none" stroke="black" cx="192.78" cy="-883" rx="89.08" ry="18"/>
<text text-anchor="middle" x="192.78" y="-879.3" font-family="Times-Roman" font-size="14.00">Sub&#45;Components</text>
</g>
<!-- ko -->
<g id="node7" class="node">
<title>ko</title>
<ellipse fill="lightgrey" stroke="lightgrey" cx="192.78" cy="-797" rx="96.68" ry="18"/>
<text text-anchor="middle" x="192.78" y="-793.3" font-family="Times-Roman" font-size="14.00">Kubernetes objects</text>
</g>
<!-- cr -->
<g id="node8" class="node">
<title>cr</title>
<ellipse fill="lightblue" stroke="lightblue" cx="192.78" cy="-711" rx="176.57" ry="18"/>
<text text-anchor="middle" x="192.78" y="-707.3" font-family="Times-Roman" font-size="14.00">Kubernetes Custom Resource obects</text>
</g>
<!-- lvset_cr -->
<g id="node9" class="node">
<title>lvset_cr</title>
<ellipse fill="lightblue" stroke="lightblue" cx="192.78" cy="-539" rx="118.88" ry="18"/>
<text text-anchor="middle" x="192.78" y="-535.3" font-family="Times-Roman" font-size="14.00">LocalVolumeSet Objects</text>
</g>
<!-- lvset_cr&#45;&gt;nd_cont -->
<g id="edge8" class="edge">
<title>lvset_cr&#45;&gt;nd_cont</title>
<path fill="none" stroke="green" d="M296.39,-547.95C324.71,-554.25 354.08,-564.71 377.57,-582 391.69,-592.39 383.77,-605.18 397.57,-616 416.58,-630.9 439.06,-642.29 462.14,-650.98"/>
<polygon fill="green" stroke="green" points="461.11,-654.33 471.71,-654.42 463.48,-647.74 461.11,-654.33"/>
</g>
<!-- lvset_cr&#45;&gt;lvset_cont -->
<g id="edge3" class="edge">
<title>lvset_cr&#45;&gt;lvset_cont</title>
<path fill="none" stroke="orange" d="M318.68,-543.52C344.14,-544.44 371.59,-545.44 399.08,-546.43"/>
<polygon fill="orange" stroke="orange" points="318.8,-540.02 308.68,-543.16 318.54,-547.02 318.8,-540.02"/>
<polygon fill="orange" stroke="orange" points="399.08,-549.93 409.2,-546.8 399.34,-542.94 399.08,-549.93"/>
</g>
<!-- diskmaker_pod_n -->
<g id="node17" class="node">
<title>diskmaker_pod_n</title>
<polygon fill="lightgrey" stroke="lightgrey" points="1494.87,-291.5 1278.87,-291.5 1278.87,-238.5 1494.87,-238.5 1494.87,-291.5"/>
<text text-anchor="middle" x="1386.87" y="-276.3" font-family="Times-Roman" font-size="14.00">Diskmaker Pod &#39;N&#39;</text>
<text text-anchor="middle" x="1386.87" y="-261.3" font-family="Times-Roman" font-size="14.00">(watches spec of LVs,LVSets,</text>
<text text-anchor="middle" x="1386.87" y="-246.3" font-family="Times-Roman" font-size="14.00">creates symlinks and PVs)</text>
</g>
<!-- lvset_cr&#45;&gt;diskmaker_pod_n -->
<g id="edge13" class="edge">
<title>lvset_cr&#45;&gt;diskmaker_pod_n</title>
<path fill="none" stroke="violet" d="M308.15,-534.62C334.42,-528.11 359.82,-516.39 377.57,-496 409.51,-459.31 361.85,-311.03 397.57,-278 521,-163.88 1034.43,-216.83 1268.57,-247.96"/>
<polygon fill="violet" stroke="violet" points="1268.11,-251.43 1278.48,-249.29 1269.04,-244.49 1268.11,-251.43"/>
</g>
<!-- lv_cr -->
<g id="node10" class="node">
<title>lv_cr</title>
<ellipse fill="lightblue" stroke="lightblue" cx="192.78" cy="-625" rx="104.78" ry="18"/>
<text text-anchor="middle" x="192.78" y="-621.3" font-family="Times-Roman" font-size="14.00">LocalVolume Objects</text>
</g>
<!-- lv_cr&#45;&gt;nd_cont -->
<g id="edge9" class="edge">
<title>lv_cr&#45;&gt;nd_cont</title>
<path fill="none" stroke="green" d="M276.65,-635.8C324.89,-642.08 387.38,-650.23 445.09,-657.75"/>
<polygon fill="green" stroke="green" points="444.69,-661.22 455.06,-659.04 445.59,-654.28 444.69,-661.22"/>
</g>
<!-- lv_cr&#45;&gt;lv_cont -->
<g id="edge1" class="edge">
<title>lv_cr&#45;&gt;lv_cont</title>
<path fill="none" stroke="purple" d="M300.76,-633.86C328.73,-640.9 356.82,-652.87 377.57,-673 400.18,-694.93 375.34,-718.67 397.57,-741 412.92,-756.42 431.89,-768.1 452.09,-776.94"/>
<polygon fill="purple" stroke="purple" points="301.41,-630.42 290.88,-631.57 299.83,-637.24 301.41,-630.42"/>
<polygon fill="purple" stroke="purple" points="450.87,-780.22 461.45,-780.8 453.54,-773.75 450.87,-780.22"/>
</g>
<!-- lv_cr&#45;&gt;diskmaker_pod_n -->
<g id="edge12" class="edge">
<title>lv_cr&#45;&gt;diskmaker_pod_n</title>
<path fill="none" stroke="violet" d="M297.09,-623.01C327.14,-617.16 357.31,-605.2 377.57,-582 408.41,-546.69 364.64,-405.36 397.57,-372 457.81,-310.98 1020.18,-280.21 1268.72,-269.51"/>
<polygon fill="violet" stroke="violet" points="1269.03,-273 1278.87,-269.07 1268.73,-266 1269.03,-273"/>
</g>
<!-- discovery_cr -->
<g id="node11" class="node">
<title>discovery_cr</title>
<ellipse fill="lightblue" stroke="lightblue" cx="192.78" cy="-444" rx="156.04" ry="26.74"/>
<text text-anchor="middle" x="192.78" y="-447.8" font-family="Times-Roman" font-size="14.00">LocalVolumeDiscovery Object</text>
<text text-anchor="middle" x="192.78" y="-432.8" font-family="Times-Roman" font-size="14.00">(singleton)</text>
</g>
<!-- discovery_cr&#45;&gt;discovery_cont -->
<g id="edge5" class="edge">
<title>discovery_cr&#45;&gt;discovery_cont</title>
<path fill="none" stroke="red" d="M356.1,-438.13C379.85,-437.27 404.42,-436.38 428.49,-435.5"/>
<polygon fill="red" stroke="red" points="355.62,-434.64 345.75,-438.5 355.87,-441.64 355.62,-434.64"/>
<polygon fill="red" stroke="red" points="428.91,-438.99 438.78,-435.13 428.66,-432 428.91,-438.99"/>
</g>
<!-- dicovery_pod_n -->
<g id="node18" class="node">
<title>dicovery_pod_n</title>
<polygon fill="lightgrey" stroke="lightgrey" points="1509.87,-188 1263.87,-188 1263.87,-150 1509.87,-150 1509.87,-188"/>
<text text-anchor="middle" x="1386.87" y="-172.8" font-family="Times-Roman" font-size="14.00">Discovery Pod &#39;N&#39;</text>
<text text-anchor="middle" x="1386.87" y="-157.8" font-family="Times-Roman" font-size="14.00">(creates discResult for this node)</text>
</g>
<!-- discovery_cr&#45;&gt;dicovery_pod_n -->
<g id="edge16" class="edge">
<title>discovery_cr&#45;&gt;dicovery_pod_n</title>
<path fill="none" stroke="black" d="M206.15,-417.02C232.47,-363.27 299.71,-243.89 397.57,-196 698.3,-48.82 1114.53,-110.26 1295.65,-147.84"/>
<polygon fill="black" stroke="black" points="1295.17,-151.32 1305.67,-149.95 1296.6,-144.47 1295.17,-151.32"/>
</g>
<!-- discovery_result_cr -->
<g id="node12" class="node">
<title>discovery_result_cr</title>
<ellipse fill="lightblue" stroke="lightblue" cx="1038.37" cy="-18" rx="137.58" ry="18"/>
<text text-anchor="middle" x="1038.37" y="-14.3" font-family="Times-Roman" font-size="14.00">LocalVolumeyResult Objects</text>
</g>
<!-- discovery_result_cr&#45;&gt;dicovery_pod_n -->
<g id="edge17" class="edge">
<title>discovery_result_cr&#45;&gt;dicovery_pod_n</title>
<path fill="none" stroke="black" d="M1117.19,-36.37C1151.81,-45.74 1192.61,-58.46 1227.87,-74 1272.31,-93.58 1319.58,-123.33 1350.71,-144.31"/>
<polygon fill="black" stroke="black" points="1117.7,-32.89 1107.14,-33.7 1115.9,-39.65 1117.7,-32.89"/>
<polygon fill="black" stroke="black" points="1348.81,-147.25 1359.05,-149.98 1352.74,-141.46 1348.81,-147.25"/>
</g>
<!-- diskmaker_ds&#45;&gt;diskmaker_pod_n -->
<g id="edge11" class="edge">
<title>diskmaker_ds&#45;&gt;diskmaker_pod_n</title>
<path fill="none" stroke="green" d="M1096.64,-570.01C1136.03,-547.1 1188.19,-513.47 1227.87,-476 1285.3,-421.76 1337.12,-344.74 1364.78,-300.32"/>
<polygon fill="green" stroke="green" points="1094.86,-567 1087.93,-575.03 1098.35,-573.07 1094.86,-567"/>
<polygon fill="green" stroke="green" points="1367.87,-301.97 1370.15,-291.62 1361.92,-298.29 1367.87,-301.97"/>
</g>
<!-- discovery_ds&#45;&gt;dicovery_pod_n -->
<g id="edge7" class="edge">
<title>discovery_ds&#45;&gt;dicovery_pod_n</title>
<path fill="none" stroke="red" d="M1066.63,-389.4C1104.54,-343.39 1177.41,-262.29 1255.87,-214 1270.41,-205.05 1286.96,-197.59 1303.27,-191.49"/>
<polygon fill="red" stroke="red" points="1063.8,-387.33 1060.18,-397.29 1069.22,-391.76 1063.8,-387.33"/>
<polygon fill="red" stroke="red" points="1304.61,-194.73 1312.83,-188.05 1302.24,-188.14 1304.61,-194.73"/>
</g>
<!-- pv_cr -->
<g id="node16" class="node">
<title>pv_cr</title>
<ellipse fill="lightgrey" stroke="lightgrey" cx="1662.86" cy="-222" rx="116.98" ry="18"/>
<text text-anchor="middle" x="1662.86" y="-218.3" font-family="Times-Roman" font-size="14.00">PVs pointing at symlink</text>
</g>
<!-- diskmaker_pod_n&#45;&gt;symlinks -->
<g id="edge14" class="edge">
<title>diskmaker_pod_n&#45;&gt;symlinks</title>
<path fill="none" stroke="violet" d="M1504.89,-283.37C1528.36,-287.05 1552.63,-290.86 1574.86,-294.35"/>
<polygon fill="violet" stroke="violet" points="1505.4,-279.9 1494.98,-281.81 1504.32,-286.82 1505.4,-279.9"/>
<polygon fill="violet" stroke="violet" points="1574.5,-297.83 1584.92,-295.92 1575.58,-290.92 1574.5,-297.83"/>
</g>
<!-- diskmaker_pod_n&#45;&gt;pv_cr -->
<g id="edge15" class="edge">
<title>diskmaker_pod_n&#45;&gt;pv_cr</title>
<path fill="none" stroke="violet" d="M1505.02,-246.61C1526.81,-243.2 1549.28,-239.67 1570.16,-236.39"/>
<polygon fill="violet" stroke="violet" points="1504.32,-243.18 1494.98,-248.19 1505.4,-250.1 1504.32,-243.18"/>
<polygon fill="violet" stroke="violet" points="1570.94,-239.81 1580.28,-234.8 1569.86,-232.9 1570.94,-239.81"/>
</g>
</g>
</svg>
