<?xml version="1.0" encoding="UTF-8" standalone="no"?>
<!DOCTYPE svg PUBLIC "-//W3C//DTD SVG 1.1//EN"
 "http://www.w3.org/Graphics/SVG/1.1/DTD/svg11.dtd">
<!-- Generated by graphviz version 2.44.0 (0)
 -->
<!-- Title: G Pages: 1 -->
<svg width="2278pt" height="943pt"
 viewBox="0.00 0.00 2278.38 943.00" xmlns="http://www.w3.org/2000/svg" xmlns:xlink="http://www.w3.org/1999/xlink">
<g id="graph0" class="graph" transform="scale(1 1) rotate(0) translate(4 939)">
<title>G</title>
<polygon fill="white" stroke="transparent" points="-4,4 -4,-939 2274.38,-939 2274.38,4 -4,4"/>
<g id="clust1" class="cluster">
<title>cluster_key</title>
<polygon fill="none" stroke="black" points="26.2,-680 26.2,-927 395.77,-927 395.77,-680 26.2,-680"/>
<text text-anchor="middle" x="210.98" y="-911.8" font-family="helvetica" font-size="14.00">Key</text>
</g>
<g id="clust2" class="cluster">
<title>cluster_inputs</title>
<polygon fill="none" stroke="black" points="8,-422 8,-646 413.97,-646 413.97,-422 8,-422"/>
</g>
<g id="clust3" class="cluster">
<title>cluster_controllers</title>
<polygon fill="none" stroke="black" points="433.97,-384 433.97,-872 857.26,-872 857.26,-384 433.97,-384"/>
<text text-anchor="middle" x="645.61" y="-856.8" font-family="helvetica" font-size="14.00">Local Storage Operator Pod</text>
</g>
<g id="clust4" class="cluster">
<title>cluster_n0</title>
<polygon fill="none" stroke="black" points="1533.3,-150 1533.3,-315 1947.3,-315 1947.3,-150 1533.3,-150"/>
<text text-anchor="middle" x="1740.3" y="-299.8" font-family="helvetica" font-size="14.00">Node &#39;N&#39;</text>
</g>
<!-- nd_cont -->
<g id="node1" class="node">
<title>nd_cont</title>
<ellipse fill="none" stroke="black" cx="645.61" cy="-679" rx="181.95" ry="37.45"/>
<text text-anchor="middle" x="645.61" y="-690.3" font-family="Times-Roman" font-size="14.00">Node Daemon Controller</text>
<text text-anchor="middle" x="645.61" y="-675.3" font-family="Times-Roman" font-size="14.00">(merges nodeSelector, tolerations,</text>
<text text-anchor="middle" x="645.61" y="-660.3" font-family="Times-Roman" font-size="14.00">ownerRefs, creates diskmaker&#45;ds)</text>
</g>
<!-- diskmaker_ds -->
<g id="node13" class="node">
<title>diskmaker_ds</title>
<ellipse fill="lightgrey" stroke="lightgrey" cx="1195.28" cy="-588" rx="303.55" ry="18"/>
<text text-anchor="middle" x="1195.28" y="-584.3" font-family="Times-Roman" font-size="14.00">Shared Diskmaker Daemonset (on nodes selected by LVs,LVSets)</text>
</g>
<!-- nd_cont&#45;&gt;diskmaker_ds -->
<g id="edge10" class="edge">
<title>nd_cont&#45;&gt;diskmaker_ds</title>
<path fill="none" stroke="green" d="M797.8,-653.88C887.77,-638.93 1000.02,-620.28 1082.09,-606.64"/>
<polygon fill="green" stroke="green" points="796.94,-650.47 787.65,-655.57 798.09,-657.38 796.94,-650.47"/>
<polygon fill="green" stroke="green" points="1082.91,-610.05 1092.2,-604.96 1081.76,-603.15 1082.91,-610.05"/>
</g>
<!-- lv_cont -->
<g id="node2" class="node">
<title>lv_cont</title>
<ellipse fill="none" stroke="black" cx="645.61" cy="-804" rx="188.18" ry="37.45"/>
<text text-anchor="middle" x="645.61" y="-815.3" font-family="Times-Roman" font-size="14.00">LocalVolume Controller</text>
<text text-anchor="middle" x="645.61" y="-800.3" font-family="Times-Roman" font-size="14.00">(watches LVs, creates StorageClass,</text>
<text text-anchor="middle" x="645.61" y="-785.3" font-family="Times-Roman" font-size="14.00">updates LV status)</text>
</g>
<!-- storageclass -->
<g id="node15" class="node">
<title>storageclass</title>
<ellipse fill="lightgrey" stroke="lightgrey" cx="1195.28" cy="-734" rx="104.78" ry="18"/>
<text text-anchor="middle" x="1195.28" y="-730.3" font-family="Times-Roman" font-size="14.00">StorageClass objects</text>
</g>
<!-- lv_cont&#45;&gt;storageclass -->
<g id="edge2" class="edge">
<title>lv_cont&#45;&gt;storageclass</title>
<path fill="none" stroke="purple" d="M814.33,-782.56C908.36,-770.55 1022.13,-756 1100.53,-745.98"/>
<polygon fill="purple" stroke="purple" points="813.76,-779.11 804.29,-783.85 814.65,-786.05 813.76,-779.11"/>
<polygon fill="purple" stroke="purple" points="1101.39,-749.4 1110.87,-744.66 1100.5,-742.46 1101.39,-749.4"/>
</g>
<!-- lvset_cont -->
<g id="node3" class="node">
<title>lvset_cont</title>
<ellipse fill="none" stroke="black" cx="645.61" cy="-554" rx="203.79" ry="37.45"/>
<text text-anchor="middle" x="645.61" y="-565.3" font-family="Times-Roman" font-size="14.00">LocalVolumeSet Controller</text>
<text text-anchor="middle" x="645.61" y="-550.3" font-family="Times-Roman" font-size="14.00">(watches LVSets, creates StorageClass,</text>
<text text-anchor="middle" x="645.61" y="-535.3" font-family="Times-Roman" font-size="14.00">updates LVSet status)</text>
</g>
<!-- lvset_cont&#45;&gt;storageclass -->
<g id="edge4" class="edge">
<title>lvset_cont&#45;&gt;storageclass</title>
<path fill="none" stroke="orange" d="M772.54,-587.78C800.74,-596.42 830.28,-606.31 857.26,-617 870.19,-622.12 872.4,-625.68 885.26,-631 968.33,-665.41 1067.41,-696.81 1130.58,-715.66"/>
<polygon fill="orange" stroke="orange" points="773.22,-584.33 762.63,-584.78 771.19,-591.03 773.22,-584.33"/>
<polygon fill="orange" stroke="orange" points="1129.82,-719.09 1140.4,-718.58 1131.81,-712.38 1129.82,-719.09"/>
</g>
<!-- discovery_cont -->
<g id="node4" class="node">
<title>discovery_cont</title>
<ellipse fill="none" stroke="black" cx="645.61" cy="-429" rx="172.57" ry="37.45"/>
<text text-anchor="middle" x="645.61" y="-440.3" font-family="Times-Roman" font-size="14.00">LocalVolumeDiscovery Controller</text>
<text text-anchor="middle" x="645.61" y="-425.3" font-family="Times-Roman" font-size="14.00">(watches LVDisc.,</text>
<text text-anchor="middle" x="645.61" y="-410.3" font-family="Times-Roman" font-size="14.00">creates diskmaker&#45;ds)</text>
</g>
<!-- discovery_ds -->
<g id="node14" class="node">
<title>discovery_ds</title>
<ellipse fill="lightgrey" stroke="lightgrey" cx="1195.28" cy="-420" rx="310.04" ry="18"/>
<text text-anchor="middle" x="1195.28" y="-416.3" font-family="Times-Roman" font-size="14.00">Shared Discovery Daemonset (on nodes selected by LVDiscovery) </text>
</g>
<!-- discovery_cont&#45;&gt;discovery_ds -->
<g id="edge6" class="edge">
<title>discovery_cont&#45;&gt;discovery_ds</title>
<path fill="none" stroke="red" d="M828.15,-426.02C847.15,-425.7 866.81,-425.38 886.71,-425.05"/>
<polygon fill="red" stroke="red" points="827.96,-422.52 818.02,-426.18 828.08,-429.52 827.96,-422.52"/>
<polygon fill="red" stroke="red" points="886.88,-428.55 896.82,-424.89 886.76,-421.55 886.88,-428.55"/>
</g>
<!-- symlinks -->
<g id="node5" class="node">
<title>symlinks</title>
<ellipse fill="none" stroke="black" cx="2122.84" cy="-308" rx="142.17" ry="18"/>
<text text-anchor="middle" x="2122.84" y="-304.3" font-family="Times-Roman" font-size="14.00">Symlink to blockdev on Node</text>
</g>
<!-- sc -->
<g id="node6" class="node">
<title>sc</title>
<ellipse fill="none" stroke="black" cx="210.98" cy="-878" rx="89.08" ry="18"/>
<text text-anchor="middle" x="210.98" y="-874.3" font-family="Times-Roman" font-size="14.00">Sub&#45;Components</text>
</g>
<!-- ko -->
<g id="node7" class="node">
<title>ko</title>
<ellipse fill="lightgrey" stroke="lightgrey" cx="210.98" cy="-792" rx="96.68" ry="18"/>
<text text-anchor="middle" x="210.98" y="-788.3" font-family="Times-Roman" font-size="14.00">Kubernetes objects</text>
</g>
<!-- cr -->
<g id="node8" class="node">
<title>cr</title>
<ellipse fill="lightblue" stroke="lightblue" cx="210.98" cy="-706" rx="176.57" ry="18"/>
<text text-anchor="middle" x="210.98" y="-702.3" font-family="Times-Roman" font-size="14.00">Kubernetes Custom Resource obects</text>
</g>
<!-- lvset_cr -->
<g id="node9" class="node">
<title>lvset_cr</title>
<ellipse fill="lightblue" stroke="lightblue" cx="210.98" cy="-534" rx="118.88" ry="18"/>
<text text-anchor="middle" x="210.98" y="-530.3" font-family="Times-Roman" font-size="14.00">LocalVolumeSet Objects</text>
</g>
<!-- lvset_cr&#45;&gt;nd_cont -->
<g id="edge8" class="edge">
<title>lvset_cr&#45;&gt;nd_cont</title>
<path fill="none" stroke="green" d="M323.52,-539.9C355.23,-546.06 388.13,-557.22 413.97,-577 429.43,-588.84 418.99,-603.54 433.97,-616 452.13,-631.11 473.83,-642.6 496.29,-651.33"/>
<polygon fill="green" stroke="green" points="495.36,-654.72 505.96,-654.9 497.79,-648.15 495.36,-654.72"/>
</g>
<!-- lvset_cr&#45;&gt;lvset_cont -->
<g id="edge3" class="edge">
<title>lvset_cr&#45;&gt;lvset_cont</title>
<path fill="none" stroke="orange" d="M335.37,-539.7C367.35,-541.18 402.68,-542.82 437.68,-544.43"/>
<polygon fill="orange" stroke="orange" points="335.24,-536.19 325.09,-539.23 334.91,-543.19 335.24,-536.19"/>
<polygon fill="orange" stroke="orange" points="437.88,-547.95 448.03,-544.91 438.2,-540.95 437.88,-547.95"/>
</g>
<!-- diskmaker_pod_n -->
<g id="node17" class="node">
<title>diskmaker_pod_n</title>
<polygon fill="lightgrey" stroke="lightgrey" points="1939.3,-284 1541.3,-284 1541.3,-246 1939.3,-246 1939.3,-284"/>
<text text-anchor="middle" x="1740.3" y="-268.8" font-family="Times-Roman" font-size="14.00">Diskmaker Pod &#39;N&#39;</text>
<text text-anchor="middle" x="1740.3" y="-253.8" font-family="Times-Roman" font-size="14.00">(watches spec of LVs,LVSets, creates symlinks and PVs</text>
</g>
<!-- lvset_cr&#45;&gt;diskmaker_pod_n -->
<g id="edge13" class="edge">
<title>lvset_cr&#45;&gt;diskmaker_pod_n</title>
<path fill="none" stroke="violet" d="M330.09,-533.51C361.53,-527.43 392.63,-514.97 413.97,-491 445.57,-455.49 398.97,-310.18 433.97,-278 600.81,-124.56 1303.95,-202.98 1603.37,-244.6"/>
<polygon fill="violet" stroke="violet" points="1603.03,-248.08 1613.42,-246 1604,-241.15 1603.03,-248.08"/>
</g>
<!-- lv_cr -->
<g id="node10" class="node">
<title>lv_cr</title>
<ellipse fill="lightblue" stroke="lightblue" cx="210.98" cy="-620" rx="104.78" ry="18"/>
<text text-anchor="middle" x="210.98" y="-616.3" font-family="Times-Roman" font-size="14.00">LocalVolume Objects</text>
</g>
<!-- lv_cr&#45;&gt;nd_cont -->
<g id="edge9" class="edge">
<title>lv_cr&#45;&gt;nd_cont</title>
<path fill="none" stroke="green" d="M293.61,-631.13C347.18,-638.44 419.05,-648.24 483.81,-657.07"/>
<polygon fill="green" stroke="green" points="483.34,-660.54 493.72,-658.42 484.29,-653.6 483.34,-660.54"/>
</g>
<!-- lv_cr&#45;&gt;lv_cont -->
<g id="edge1" class="edge">
<title>lv_cr&#45;&gt;lv_cont</title>
<path fill="none" stroke="purple" d="M323.93,-625.24C356.53,-631.97 389.83,-644.68 413.97,-668 438.15,-691.38 410.46,-716.94 433.97,-741 449.06,-756.45 467.77,-768.15 487.77,-777"/>
<polygon fill="purple" stroke="purple" points="324.32,-621.75 313.84,-623.34 323.02,-628.63 324.32,-621.75"/>
<polygon fill="purple" stroke="purple" points="486.46,-780.24 497.04,-780.86 489.16,-773.78 486.46,-780.24"/>
</g>
<!-- lv_cr&#45;&gt;diskmaker_pod_n -->
<g id="edge12" class="edge">
<title>lv_cr&#45;&gt;diskmaker_pod_n</title>
<path fill="none" stroke="violet" d="M315.3,-621.86C351.5,-617 389.24,-604.67 413.97,-577 444.46,-542.87 401.35,-404.11 433.97,-372 510.32,-296.81 1182.07,-274.34 1530.92,-267.71"/>
<polygon fill="violet" stroke="violet" points="1531.21,-271.21 1541.15,-267.52 1531.08,-264.21 1531.21,-271.21"/>
</g>
<!-- discovery_cr -->
<g id="node11" class="node">
<title>discovery_cr</title>
<ellipse fill="lightblue" stroke="lightblue" cx="210.98" cy="-448" rx="194.97" ry="18"/>
<text text-anchor="middle" x="210.98" y="-444.3" font-family="Times-Roman" font-size="14.00">LocalVolumeDiscovery Object (singleton)</text>
</g>
<!-- discovery_cr&#45;&gt;discovery_cont -->
<g id="edge5" class="edge">
<title>discovery_cr&#45;&gt;discovery_cont</title>
<path fill="none" stroke="red" d="M397.35,-439.86C420.22,-438.85 443.56,-437.83 466.31,-436.83"/>
<polygon fill="red" stroke="red" points="397.16,-436.36 387.33,-440.3 397.47,-443.36 397.16,-436.36"/>
<polygon fill="red" stroke="red" points="466.54,-440.32 476.38,-436.39 466.23,-433.33 466.54,-440.32"/>
</g>
<!-- dicovery_pod_n -->
<g id="node18" class="node">
<title>dicovery_pod_n</title>
<polygon fill="lightgrey" stroke="lightgrey" points="1863.3,-196 1617.3,-196 1617.3,-158 1863.3,-158 1863.3,-196"/>
<text text-anchor="middle" x="1740.3" y="-180.8" font-family="Times-Roman" font-size="14.00">Discovery Pod &#39;N&#39;</text>
<text text-anchor="middle" x="1740.3" y="-165.8" font-family="Times-Roman" font-size="14.00">(creates discResult for this node)</text>
</g>
<!-- discovery_cr&#45;&gt;dicovery_pod_n -->
<g id="edge16" class="edge">
<title>discovery_cr&#45;&gt;dicovery_pod_n</title>
<path fill="none" stroke="black" d="M219.86,-429.69C243.32,-377.8 318.4,-229.98 433.97,-175 859.31,27.35 1454.43,-100.19 1663.27,-155.34"/>
<polygon fill="black" stroke="black" points="1662.65,-158.79 1673.22,-157.98 1664.46,-152.03 1662.65,-158.79"/>
</g>
<!-- discovery_result_cr -->
<g id="node12" class="node">
<title>discovery_result_cr</title>
<ellipse fill="lightblue" stroke="lightblue" cx="1195.28" cy="-18" rx="137.58" ry="18"/>
<text text-anchor="middle" x="1195.28" y="-14.3" font-family="Times-Roman" font-size="14.00">LocalVolumeyResult Objects</text>
</g>
<!-- discovery_result_cr&#45;&gt;dicovery_pod_n -->
<g id="edge17" class="edge">
<title>discovery_result_cr&#45;&gt;dicovery_pod_n</title>
<path fill="none" stroke="black" d="M1307.39,-31.67C1366.9,-40.6 1440.99,-54.32 1505.3,-74 1573.2,-94.78 1647.62,-129.81 1693.9,-153.17"/>
<polygon fill="black" stroke="black" points="1307.62,-28.17 1297.21,-30.17 1306.59,-35.09 1307.62,-28.17"/>
<polygon fill="black" stroke="black" points="1692.55,-156.41 1703.05,-157.82 1695.72,-150.17 1692.55,-156.41"/>
</g>
<!-- diskmaker_ds&#45;&gt;diskmaker_pod_n -->
<g id="edge11" class="edge">
<title>diskmaker_ds&#45;&gt;diskmaker_pod_n</title>
<path fill="none" stroke="green" d="M1265.24,-567.14C1329.89,-545.99 1427.91,-509.74 1505.3,-463 1588.93,-412.5 1672.95,-332.61 1713.79,-291.45"/>
<polygon fill="green" stroke="green" points="1263.99,-563.87 1255.56,-570.28 1266.15,-570.52 1263.99,-563.87"/>
<polygon fill="green" stroke="green" points="1716.38,-293.81 1720.91,-284.23 1711.4,-288.9 1716.38,-293.81"/>
</g>
<!-- discovery_ds&#45;&gt;dicovery_pod_n -->
<g id="edge7" class="edge">
<title>discovery_ds&#45;&gt;dicovery_pod_n</title>
<path fill="none" stroke="red" d="M1229.04,-395.7C1287.24,-353.72 1413.78,-267.62 1533.3,-221 1556.99,-211.76 1583,-204.3 1608.33,-198.32"/>
<polygon fill="red" stroke="red" points="1226.67,-393.1 1220.63,-401.81 1230.78,-398.77 1226.67,-393.1"/>
<polygon fill="red" stroke="red" points="1609.41,-201.66 1618.38,-196.02 1607.85,-194.84 1609.41,-201.66"/>
</g>
<!-- pv_cr -->
<g id="node16" class="node">
<title>pv_cr</title>
<ellipse fill="lightgrey" stroke="lightgrey" cx="2122.84" cy="-222" rx="147.57" ry="18"/>
<text text-anchor="middle" x="2122.84" y="-218.3" font-family="Times-Roman" font-size="14.00">PV objects pointing at symlink</text>
</g>
<!-- diskmaker_pod_n&#45;&gt;symlinks -->
<g id="edge14" class="edge">
<title>diskmaker_pod_n&#45;&gt;symlinks</title>
<path fill="none" stroke="violet" d="M1919.81,-285.17C1949.16,-288.49 1978.88,-291.85 2006.17,-294.93"/>
<polygon fill="violet" stroke="violet" points="1919.93,-281.66 1909.6,-284.02 1919.14,-288.62 1919.93,-281.66"/>
<polygon fill="violet" stroke="violet" points="2005.78,-298.41 2016.11,-296.05 2006.57,-291.45 2005.78,-298.41"/>
</g>
<!-- diskmaker_pod_n&#45;&gt;pv_cr -->
<g id="edge15" class="edge">
<title>diskmaker_pod_n&#45;&gt;pv_cr</title>
<path fill="none" stroke="violet" d="M1919.58,-244.86C1948.16,-241.63 1977.1,-238.36 2003.81,-235.34"/>
<polygon fill="violet" stroke="violet" points="1919.14,-241.38 1909.6,-245.98 1919.93,-248.34 1919.14,-241.38"/>
<polygon fill="violet" stroke="violet" points="2004.39,-238.79 2013.93,-234.19 2003.6,-231.84 2004.39,-238.79"/>
</g>
</g>
</svg>
